<mxfile host="app.diagrams.net" modified="2023-11-29T15:13:41.806Z" agent="Mozilla/5.0 (Macintosh; Intel Mac OS X 10_15_7) AppleWebKit/537.36 (KHTML, like Gecko) Chrome/119.0.0.0 Safari/537.36" version="22.1.5" etag="8iOq75q5y8xsS-T_yVOJ" type="github">
  <diagram name="Page-1" id="kirpR9D81AboMSvMYFIO">
    <mxGraphModel>
      <root>
        <mxCell id="0" />
        <mxCell id="1" parent="0" />
      </root>
    </mxGraphModel>
  </diagram>
</mxfile>
